<?xml version="1.0" encoding="UTF-8"?>
<svg id="Layer_1" data-name="Layer 1" xmlns="http://www.w3.org/2000/svg" viewBox="0 0 972.33 941.36">
  <defs>
    <style>
      .cls-1 {
        fill: #4b4b49;
      }
    </style>
  </defs>
  <path class="cls-1" d="M876.2,249.52c18.69.67,35.12,9.43,48.34,22.2l8.05,15.54c10.45,20.18,17.45,43.74,24.01,65.83.53,1.78,2.84,4.89,3.45,4.94l-.15,1.72c4.59,30.39,10.07,60.44,11.83,92.82,4.1,75.51-13.14,149.69-46.24,217.52-2.8,5.73-4.87,10.7-6.83,15.63-5.04,4.91-8.48,13.15-10.54,19.73l-3.75,6.1-39.45,53.49c-1.89.93-4.22,4.71-4.93,6.83-29.12,28.9-58.95,56.75-91.65,81.7-4.25,1.21-8.34,3.99-10.1,7.84-6.57.79-16.72,10.33-22.37,13.46l-35.01,17.92-43.05,17.57c-37.57,15.34-106.96,26.93-143.54,30.84-1.44.15-4.28.16-5.8.12l-68.03-1.88-47.84-7.07c-4.21-.62-8.86-.07-12.04.7-1.14-1.45-4.33-4.07-6.23-3.81l-3.63.5c-2.87-3.59-9.67-3.02-13.81-4.64s-8.37-3.07-12.67-3.94c-11.2-5.41-23.47-9.85-35.66-12.33l-13.67-6.38-21.84-10.14c-15.69-7.28-30.81-15.07-45-23.53-.65-.39-28.64-22.45-31.43-19.07-4.31-7.37-12.52-12.88-20.34-16.58-2.13-3.3-6.16-7.24-9.64-9.23l-1.9-.35c-1.63-4.11-5.88-7.31-9.85-8.46-6.64-8.93-15.1-17.44-24.16-23.9-7.56-11.44-17.64-21.95-28.46-30.11-3.98-11-12.93-20.67-20.82-29.6-2.83-5.33-6.81-11.7-10.9-16.2l-9.98-17.66,31.18,5.55c151.53,231.88,467.75,287.03,686.51,112.35,70.02-55.91,122.03-129.08,150.08-214.82,32.85-100.43,26.56-211.06-18.49-306.13-9.34-19.72-30.23-28.48-49.84-21.28-16.24,5.96-28.5,18.05-37.62,32.61-14.77,23.57-26.57,47.38-36.29,73.8l-74.73,203.09c-3.31,9.01-5.28,22.72-.43,29.67,6.1,8.73,17.69,5.4,26.69,7.76l-4.69,16.33-103.1-.32c1.3-5.91,2.82-11.28,4.76-17.07,21.62,2.44,34.3-11.26,43.78-29.04l49.37-134.82-150.06.54c-13.83,38.13-27.55,72.81-45.32,107.9-24.34,46.26-64.13,90.14-121.36,77.31-25.69-5.76-43.5-24.31-47.37-50.3-4.04-27.13,3.73-53.83,20.36-75.89,39.24-52.05,108.87-72.07,171.54-78.13l40.17-106.3c4.94-13.09,8.91-25.81,12.56-39.09,2.53-9.22-2.75-18.29-12.07-19.56l-16.01-2.19,5.34-17.09,41,.91,60.72-.88c-1.52,7.22-3.35,12.85-6.01,17.91-17.13-.81-29.85,5.83-38.89,19.49-6.66,13.01-12.11,26.36-17.47,40.36l-38.24,102.9,149.48-.33c21.81-51.52,44.19-127.86,87.15-164.13,15.51-12.56,33.59-19.95,53-19.25ZM473.68,602.94c34.37-36.53,55.36-95.55,72.87-142.66-58.02,5.29-130.57,31.3-154.46,87.3-7.68,17.5-8.63,36.94.34,54.05,15.14,28.88,58.56,23.61,81.25,1.31Z"/>
  <path class="cls-1" d="M50.75,661.57l-10.19-8.32c-.56-.87-2.19-2.27-3.97-3.3l-2.35-4.54c.09-1.07.21-3.38.01-5.83-.84-10.47-4.37-24.48,2.37-35.56,9.2-15.12,25.84-25.64,43.25-30.43,44.46-12.23,93.16.94,134.09,20.47,33.46-41.29,53.34-83.09,73.86-133.44-29.4-.06-56.42-2.34-82.54-14.19-56.8-25.77-73.58-77.63-50.88-134.73l21.65-28.09c32.38-26.72,73.2-40.36,115.5-29.22l-5.84,19.73c-27.5-4.8-53.68-1.56-76.98,13.62-32.82,21.37-48.42,62.06-34.09,99.17,17.14,44.37,80.77,56.04,122.82,50.35l49.21-117.6c9.68-23.12,21.59-44.07,34.9-65.12,24.51-38.76,61.82-74,110.84-72.61,23.55.67,43.07,14.17,50.79,36.46,13.97,40.3-7.91,88.79-32.9,121.61-46.91,61.62-115.56,102.54-191.43,116.96-22.35,56.61-43.63,99.61-82.64,147.33l87.53,50.45c31.86,18.37,62.79,34.94,96.46,49.61,92.05,40.1,217.48,52.73,288.17-33.92,6.52,3.47,11.42,7.77,16.77,13.98-45.98,60.5-119.44,77.88-192.95,72.2-121.14-9.36-209.64-79.05-313.68-133.56-30.49,29.22-65.2,48.02-106.05,51.33-21.43,1.73-45.12.75-61.72-12.81ZM515.16,285.94c6.8-16.99,10.51-34.44,7.96-52.39-2.18-15.35-12.39-26.94-27.92-28.95-41.65-5.39-69.03,29.28-89.97,60.26-13.31,22.53-25.31,44.54-35.31,68.83l-40.47,98.21c74.9-14.88,156.6-76.55,185.71-145.96ZM196.52,611.93c-36.73-18.66-90.81-30.38-127.4-10.18-8.61,6.33-14.11,14.66-13.41,24.87.6,8.73,6.83,15.82,15.32,21.22,40.44,17.8,95.04-6.38,125.49-35.91Z"/>
  <path class="cls-1" d="M598.51,11.5c1.45.61,4.27,1.58,5.54,2.4,6.2,4.04,21.31,5.04,28.43,7.61l27.93,10.1c20.54,7.43,40.89,16.19,60.55,27.97l51.06,30.6c3.67,3.67,9.08,8.02,13.9,9.97,9.96,11.47,23.9,19.54,34.85,29.99l25.14,23.99,30.05,35.34,12.69,17.48c3.47,4.78,6.58,11.76,10.47,19.51-9.51-3.51-17.58-4.91-28.94-4.34C773.86,85.79,612.81,11.18,445.94,25.36c-141.45,12.02-275.24,88.68-350.26,208.53-5.43,8.68-14.28,16.85-15.9,27.48-14.32,18.88-22.57,41.63-31.27,65.18-28.49,77.08-33.26,159.84-15.05,238.99l-19.09,21.82-5.49-20.28c-.49-5.02-1.31-10.51-2.18-15.67-11.49-68.29-8.83-144.6,12.66-211.92l10.84-33.96c.48-1.51,1.85-4.22,2.58-5.71l27.65-56.31c2.85-5.8,8.36-14.24,12.13-19.66,7.43-10.68,14.75-22.01,23.38-32.67l13.13-16.19c2.74-3.38,6.32-7.84,9.33-10.87l40.76-40.94c2.11-2.12,6.36-4.52,7.87-7.15,20.78-11.47,31.35-29.03,52.82-38.7,11.02-4.97,20.75-12.61,30.69-17.96l17.71-9.53,54.2-22.15c6.32-2.58,15.49-4.99,22.25-6.71,29.46-7.51,59.24-14.26,89.46-17.81,13.3-1.56,29.08-3.31,42.28-3.14,38.03.48,75.5,4.46,113.93,11.86,1.99.38,6.58-.13,8.13-.37Z"/>
</svg>